<svg xmlns="http://www.w3.org/2000/svg" width="20" height="20" viewBox="0 0 24 24">
    <defs>
        <linearGradient id="instagramGradient" x1="0%" y1="0%" x2="100%" y2="100%">
            <stop offset="0%" style="stop-color:#833AB4; stop-opacity:1" />
            <stop offset="33%" style="stop-color:#FD1D1D; stop-opacity:1" />
            <stop offset="66%" style="stop-color:#FBB03B; stop-opacity:1" />
            <stop offset="100%" style="stop-color:#FCAF45; stop-opacity:1" />
        </linearGradient>
    </defs>
    <rect x="2" y="2" width="20" height="20" rx="4" ry="4" fill="url(#instagramGradient)" />
    <path d="M17 0H7C3.13 0 0 3.13 0 7v10c0 3.87 3.13 7 7 7h10c3.87 0 7-3.13 7-7V7c0-3.87-3.13-7-7-7zm4 17c0 2.21-1.79 4-4 4H7c-2.21 0-4-1.79-4-4V7c0-2.21 1.79-4 4-4h10c2.21 0 4 1.79 4 4v10z" fill="white"/>
    <path d="M12 5.5c-3.58 0-6.5 2.92-6.5 6.5S8.42 18.5 12 18.5 18.5 15.58 18.5 12 15.08 5.5 12 5.5zm0 10c-1.94 0-3.5-1.56-3.5-3.5S10.06 8.5 12 8.5s3.5 1.56 3.5 3.5S13.94 15.5 12 15.5z" fill="white"/>
    <circle cx="17.5" cy="6.5" r="1.5" fill="white"/>
</svg>
